<mxfile host="app.diagrams.net" agent="Mozilla/5.0 (X11; CrOS x86_64 14541.0.0) AppleWebKit/537.36 (KHTML, like Gecko) Chrome/138.0.0.0 Safari/537.36" version="28.0.7">
  <diagram name="Page-1" id="yeE8qaVgMbvWRXX1xnu3">
    <mxGraphModel dx="1097" dy="592" grid="1" gridSize="10" guides="1" tooltips="1" connect="1" arrows="1" fold="1" page="1" pageScale="1" pageWidth="850" pageHeight="1100" math="0" shadow="0">
      <root>
        <mxCell id="0" />
        <mxCell id="1" parent="0" />
        <mxCell id="J4nPxq5C5LE04jtOFChY-41" value="" style="group" vertex="1" connectable="0" parent="1">
          <mxGeometry x="190" y="17" width="380" height="1040" as="geometry" />
        </mxCell>
        <mxCell id="J4nPxq5C5LE04jtOFChY-1" value="" style="rounded=0;whiteSpace=wrap;html=1;" vertex="1" parent="J4nPxq5C5LE04jtOFChY-41">
          <mxGeometry width="380" height="1040" as="geometry" />
        </mxCell>
        <mxCell id="J4nPxq5C5LE04jtOFChY-2" value="" style="rounded=0;whiteSpace=wrap;html=1;" vertex="1" parent="J4nPxq5C5LE04jtOFChY-41">
          <mxGeometry width="380" height="50" as="geometry" />
        </mxCell>
        <mxCell id="J4nPxq5C5LE04jtOFChY-3" value="&lt;font style=&quot;font-size: 19px;&quot;&gt;Shola Victor-Sajowa&lt;/font&gt;" style="text;html=1;align=center;verticalAlign=middle;whiteSpace=wrap;rounded=0;" vertex="1" parent="J4nPxq5C5LE04jtOFChY-41">
          <mxGeometry x="60" y="10" width="260" height="30" as="geometry" />
        </mxCell>
        <mxCell id="J4nPxq5C5LE04jtOFChY-9" value="" style="group" vertex="1" connectable="0" parent="J4nPxq5C5LE04jtOFChY-41">
          <mxGeometry x="339" y="16" width="30" height="20" as="geometry" />
        </mxCell>
        <mxCell id="J4nPxq5C5LE04jtOFChY-4" value="" style="endArrow=none;html=1;rounded=0;strokeWidth=4;" edge="1" parent="J4nPxq5C5LE04jtOFChY-9">
          <mxGeometry width="50" height="50" relative="1" as="geometry">
            <mxPoint as="sourcePoint" />
            <mxPoint x="30" as="targetPoint" />
          </mxGeometry>
        </mxCell>
        <mxCell id="J4nPxq5C5LE04jtOFChY-6" value="" style="endArrow=none;html=1;rounded=0;strokeWidth=4;" edge="1" parent="J4nPxq5C5LE04jtOFChY-9">
          <mxGeometry width="50" height="50" relative="1" as="geometry">
            <mxPoint y="20" as="sourcePoint" />
            <mxPoint x="30" y="20" as="targetPoint" />
          </mxGeometry>
        </mxCell>
        <mxCell id="J4nPxq5C5LE04jtOFChY-7" value="" style="endArrow=none;html=1;rounded=0;strokeWidth=4;" edge="1" parent="J4nPxq5C5LE04jtOFChY-9">
          <mxGeometry width="50" height="50" relative="1" as="geometry">
            <mxPoint y="10" as="sourcePoint" />
            <mxPoint x="30" y="10" as="targetPoint" />
          </mxGeometry>
        </mxCell>
        <mxCell id="J4nPxq5C5LE04jtOFChY-10" value="" style="rounded=0;whiteSpace=wrap;html=1;" vertex="1" parent="J4nPxq5C5LE04jtOFChY-41">
          <mxGeometry y="50" width="380" height="150" as="geometry" />
        </mxCell>
        <mxCell id="J4nPxq5C5LE04jtOFChY-11" value="Carousel of pictures" style="text;html=1;align=center;verticalAlign=middle;whiteSpace=wrap;rounded=0;" vertex="1" parent="J4nPxq5C5LE04jtOFChY-41">
          <mxGeometry x="125" y="100" width="130" height="50" as="geometry" />
        </mxCell>
        <mxCell id="J4nPxq5C5LE04jtOFChY-12" value="" style="rounded=0;whiteSpace=wrap;html=1;" vertex="1" parent="J4nPxq5C5LE04jtOFChY-41">
          <mxGeometry y="200" width="380" height="160" as="geometry" />
        </mxCell>
        <mxCell id="J4nPxq5C5LE04jtOFChY-13" value="Bio" style="text;html=1;align=center;verticalAlign=middle;whiteSpace=wrap;rounded=0;" vertex="1" parent="J4nPxq5C5LE04jtOFChY-41">
          <mxGeometry x="160" y="270" width="60" height="30" as="geometry" />
        </mxCell>
        <mxCell id="J4nPxq5C5LE04jtOFChY-29" value="" style="group" vertex="1" connectable="0" parent="J4nPxq5C5LE04jtOFChY-41">
          <mxGeometry y="500" width="380" height="160" as="geometry" />
        </mxCell>
        <mxCell id="J4nPxq5C5LE04jtOFChY-14" value="" style="rounded=0;whiteSpace=wrap;html=1;" vertex="1" parent="J4nPxq5C5LE04jtOFChY-29">
          <mxGeometry width="380" height="160" as="geometry" />
        </mxCell>
        <mxCell id="J4nPxq5C5LE04jtOFChY-15" value="" style="rounded=0;whiteSpace=wrap;html=1;" vertex="1" parent="J4nPxq5C5LE04jtOFChY-29">
          <mxGeometry width="190" height="160" as="geometry" />
        </mxCell>
        <mxCell id="J4nPxq5C5LE04jtOFChY-16" value="Album 1" style="text;html=1;align=center;verticalAlign=middle;whiteSpace=wrap;rounded=0;" vertex="1" parent="J4nPxq5C5LE04jtOFChY-29">
          <mxGeometry x="10" y="10" width="170" height="30" as="geometry" />
        </mxCell>
        <mxCell id="J4nPxq5C5LE04jtOFChY-17" value="Album 2" style="text;html=1;align=center;verticalAlign=middle;whiteSpace=wrap;rounded=0;" vertex="1" parent="J4nPxq5C5LE04jtOFChY-29">
          <mxGeometry x="196" y="10" width="175" height="30" as="geometry" />
        </mxCell>
        <mxCell id="J4nPxq5C5LE04jtOFChY-30" value="" style="rounded=0;whiteSpace=wrap;html=1;" vertex="1" parent="J4nPxq5C5LE04jtOFChY-41">
          <mxGeometry y="660" width="380" height="140" as="geometry" />
        </mxCell>
        <mxCell id="J4nPxq5C5LE04jtOFChY-31" value="Coming Soon" style="text;html=1;align=center;verticalAlign=middle;whiteSpace=wrap;rounded=0;" vertex="1" parent="J4nPxq5C5LE04jtOFChY-41">
          <mxGeometry x="145" y="670" width="90" height="30" as="geometry" />
        </mxCell>
        <mxCell id="J4nPxq5C5LE04jtOFChY-32" value="" style="rounded=0;whiteSpace=wrap;html=1;" vertex="1" parent="J4nPxq5C5LE04jtOFChY-41">
          <mxGeometry y="800" width="380" height="150" as="geometry" />
        </mxCell>
        <mxCell id="J4nPxq5C5LE04jtOFChY-33" value="Enquiries" style="text;html=1;align=center;verticalAlign=middle;whiteSpace=wrap;rounded=0;" vertex="1" parent="J4nPxq5C5LE04jtOFChY-41">
          <mxGeometry x="160" y="810" width="60" height="30" as="geometry" />
        </mxCell>
        <mxCell id="J4nPxq5C5LE04jtOFChY-34" value="Footer" style="text;html=1;align=center;verticalAlign=middle;whiteSpace=wrap;rounded=0;" vertex="1" parent="J4nPxq5C5LE04jtOFChY-41">
          <mxGeometry x="160" y="950" width="60" height="30" as="geometry" />
        </mxCell>
        <mxCell id="J4nPxq5C5LE04jtOFChY-35" value="" style="ellipse;whiteSpace=wrap;html=1;" vertex="1" parent="J4nPxq5C5LE04jtOFChY-41">
          <mxGeometry x="71" y="980" width="40" height="40" as="geometry" />
        </mxCell>
        <mxCell id="J4nPxq5C5LE04jtOFChY-36" value="" style="ellipse;whiteSpace=wrap;html=1;" vertex="1" parent="J4nPxq5C5LE04jtOFChY-41">
          <mxGeometry x="136" y="980" width="40" height="40" as="geometry" />
        </mxCell>
        <mxCell id="J4nPxq5C5LE04jtOFChY-37" value="" style="ellipse;whiteSpace=wrap;html=1;" vertex="1" parent="J4nPxq5C5LE04jtOFChY-41">
          <mxGeometry x="271" y="980" width="40" height="40" as="geometry" />
        </mxCell>
        <mxCell id="J4nPxq5C5LE04jtOFChY-38" value="" style="ellipse;whiteSpace=wrap;html=1;" vertex="1" parent="J4nPxq5C5LE04jtOFChY-41">
          <mxGeometry x="206" y="980" width="40" height="40" as="geometry" />
        </mxCell>
        <mxCell id="J4nPxq5C5LE04jtOFChY-28" value="" style="group" vertex="1" connectable="0" parent="J4nPxq5C5LE04jtOFChY-41">
          <mxGeometry y="360" width="380" height="140" as="geometry" />
        </mxCell>
        <mxCell id="J4nPxq5C5LE04jtOFChY-18" value="" style="rounded=0;whiteSpace=wrap;html=1;" vertex="1" parent="J4nPxq5C5LE04jtOFChY-28">
          <mxGeometry width="380" height="140" as="geometry" />
        </mxCell>
        <mxCell id="J4nPxq5C5LE04jtOFChY-19" value="Latest realeses" style="text;html=1;align=center;verticalAlign=middle;whiteSpace=wrap;rounded=0;" vertex="1" parent="J4nPxq5C5LE04jtOFChY-28">
          <mxGeometry width="380" height="30" as="geometry" />
        </mxCell>
        <mxCell id="J4nPxq5C5LE04jtOFChY-20" value="" style="ellipse;whiteSpace=wrap;html=1;" vertex="1" parent="J4nPxq5C5LE04jtOFChY-28">
          <mxGeometry x="21" y="50" width="70" height="70" as="geometry" />
        </mxCell>
        <mxCell id="J4nPxq5C5LE04jtOFChY-23" value="" style="ellipse;whiteSpace=wrap;html=1;" vertex="1" parent="J4nPxq5C5LE04jtOFChY-28">
          <mxGeometry x="291" y="50" width="70" height="70" as="geometry" />
        </mxCell>
        <mxCell id="J4nPxq5C5LE04jtOFChY-24" value="" style="ellipse;whiteSpace=wrap;html=1;" vertex="1" parent="J4nPxq5C5LE04jtOFChY-28">
          <mxGeometry x="201" y="50" width="70" height="70" as="geometry" />
        </mxCell>
        <mxCell id="J4nPxq5C5LE04jtOFChY-25" value="" style="ellipse;whiteSpace=wrap;html=1;" vertex="1" parent="J4nPxq5C5LE04jtOFChY-28">
          <mxGeometry x="111" y="50" width="70" height="70" as="geometry" />
        </mxCell>
      </root>
    </mxGraphModel>
  </diagram>
</mxfile>
